<svg width="259" height="58" viewBox="0 0 259 58" fill="none" xmlns="http://www.w3.org/2000/svg">
<g clip-path="url(#clip0_6_3)">
<path d="M12.7113 12.6339C12.8441 12.5024 12.9495 12.346 13.0214 12.1738C13.0933 12.0017 13.1303 11.8171 13.1303 11.6307C13.1303 11.4443 13.0933 11.2597 13.0214 11.0875C12.9495 10.9154 12.8441 10.759 12.7113 10.6274L6.48385 4.43557C6.21592 4.16949 5.85266 4.02013 5.47398 4.02036C5.0953 4.02058 4.73221 4.17036 4.4646 4.43675C4.19699 4.70315 4.04677 5.06433 4.047 5.44084C4.04722 5.81736 4.19786 6.17836 4.46579 6.44444L10.6909 12.6339C10.8233 12.7663 10.9807 12.8714 11.1541 12.9431C11.3274 13.0148 11.5134 13.0517 11.7011 13.0517C11.8889 13.0517 12.0748 13.0148 12.2482 12.9431C12.4216 12.8714 12.579 12.7663 12.7113 12.6339Z" fill="#5A1D57"/>
<path d="M12.709 24.5998C12.5766 24.4674 12.4192 24.3624 12.2458 24.2907C12.0724 24.219 11.8865 24.1821 11.6988 24.1821C11.511 24.1821 11.3251 24.219 11.1517 24.2907C10.9783 24.3624 10.8209 24.4674 10.6885 24.5998L4.46105 30.7893C4.19312 31.0557 4.0426 31.417 4.0426 31.7938C4.0426 32.1705 4.19312 32.5318 4.46105 32.7982C4.72897 33.0646 5.09236 33.2143 5.47126 33.2143C5.85017 33.2143 6.21355 33.0646 6.48148 32.7982L12.709 26.6063C12.8418 26.4748 12.9471 26.3184 13.019 26.1462C13.0909 25.9741 13.128 25.7895 13.128 25.6031C13.128 25.4167 13.0909 25.2321 13.019 25.0599C12.9471 24.8878 12.8418 24.7314 12.709 24.5998Z" fill="#5A1D57"/>
<path d="M7.30776 20.0368C7.68556 20.0368 8.04789 19.8876 8.31504 19.622C8.58219 19.3563 8.73227 18.9961 8.73227 18.6204C8.73227 18.2448 8.58219 17.8845 8.31504 17.6189C8.04789 17.3533 7.68556 17.2041 7.30776 17.2041H1.42927C1.05147 17.2041 0.689138 17.3533 0.421991 17.6189C0.154843 17.8845 0.00476074 18.2448 0.00476074 18.6204C0.00476074 18.9961 0.154843 19.3563 0.421991 19.622C0.689138 19.8876 1.05147 20.0368 1.42927 20.0368H7.30776Z" fill="#5A1D57"/>
<path d="M19.7366 8.26919C19.8708 8.13846 19.9773 7.98234 20.0499 7.81004C20.1225 7.63774 20.1597 7.45273 20.1592 7.26593V1.41872C20.1592 1.04308 20.0091 0.68282 19.742 0.4172C19.4748 0.151581 19.1125 0.00235748 18.7347 0.00235748C18.3569 0.00235748 17.9946 0.151581 17.7274 0.4172C17.4603 0.68282 17.3102 1.04308 17.3102 1.41872V7.26593C17.3102 7.64157 17.4603 8.00183 17.7274 8.26745C17.9946 8.53307 18.3569 8.68229 18.7347 8.68229C18.9209 8.68272 19.1053 8.64643 19.2773 8.57552C19.4492 8.50461 19.6054 8.40049 19.7366 8.26919Z" fill="#5A1D57"/>
<path d="M60.8362 22.5343L50.2758 12.0367C49.5517 11.3167 48.5696 10.9122 47.5455 10.9122C46.5215 10.9122 45.5393 11.3167 44.8152 12.0367C44.0911 12.7567 43.6843 13.7332 43.6843 14.7514C43.6843 15.7696 44.0911 16.7461 44.8152 17.4661L42.6476 15.3085C42.289 14.952 41.8634 14.6692 41.3949 14.4763C40.9264 14.2833 40.4243 14.184 39.9173 14.184C38.8932 14.184 37.9111 14.5885 37.1869 15.3085C36.8284 15.665 36.544 16.0882 36.3499 16.554C36.1559 17.0198 36.056 17.519 36.056 18.0232C36.056 19.0414 36.4628 20.0179 37.1869 20.7379C36.5787 20.138 35.7869 19.7566 34.9365 19.6539C34.0861 19.5512 33.2255 19.733 32.4905 20.1706C31.7556 20.6083 31.1881 21.2768 30.8778 22.0707C30.5674 22.8647 30.5318 23.7387 30.7766 24.555L39.3949 33.124L30.7078 31.0278C30.0233 30.8618 29.307 30.8769 28.6301 31.0715C27.9533 31.2661 27.3395 31.6336 26.8497 32.1372L36.2017 41.4333L42.714 43.6735C46.0794 44.8399 49.7073 45.0393 53.1815 44.2489C56.6557 43.4585 59.8354 41.7103 62.3557 39.2049C63.9878 37.5847 65.3082 35.6814 66.2517 33.589C65.745 29.4044 63.8375 25.5108 60.8362 22.5343Z" fill="#FF5A00"/>
<path d="M24.7437 12.6339C24.8761 12.766 25.0333 12.8708 25.2065 12.9422C25.3796 13.0137 25.5653 13.0505 25.7527 13.0505C25.9402 13.0505 26.1259 13.0137 26.299 12.9422C26.4722 12.8708 26.6294 12.766 26.7618 12.6339L32.9798 6.44681C33.2477 6.18041 33.3982 5.81911 33.3982 5.44237C33.3982 5.06563 33.2477 4.70433 32.9798 4.43793C32.7118 4.17154 32.3485 4.02188 31.9696 4.02188C31.5906 4.02188 31.2273 4.17154 30.9593 4.43793L24.7437 10.6298C24.6113 10.7613 24.5062 10.9175 24.4345 11.0895C24.3628 11.2614 24.3259 11.4457 24.3259 11.6319C24.3259 11.818 24.3628 12.0023 24.4345 12.1742C24.5062 12.3462 24.6113 12.5024 24.7437 12.6339Z" fill="#5A1D57"/>
<path d="M43.8133 11.0311C43.1564 11.6842 42.6854 12.4987 42.4481 13.3917C41.63 12.9478 40.7084 12.7271 39.7767 12.752C38.8451 12.7769 37.9367 13.0465 37.1438 13.5335C36.3509 14.0205 35.7017 14.7074 35.2623 15.5246C34.8229 16.3418 34.6088 17.26 34.6418 18.1861C33.493 18.1485 32.3633 18.4852 31.4247 19.1448C30.4861 19.8045 29.79 20.751 29.4423 21.8403L22.4622 14.9001C21.9716 14.4123 21.3892 14.0254 20.7482 13.7614C20.1072 13.4974 19.4202 13.3616 18.7264 13.3616C18.0326 13.3616 17.3456 13.4974 16.7046 13.7614C16.0637 14.0254 15.4812 14.4123 14.9906 14.9001C13.9999 15.8852 13.4432 17.2214 13.4432 18.6145C13.4432 20.0077 13.9999 21.3438 14.9906 22.3289L20.3159 27.6238C20.5839 27.8899 20.9471 28.0392 21.3258 28.039C21.7045 28.0388 22.0676 27.889 22.3352 27.6226C22.6028 27.3562 22.753 26.995 22.7528 26.6185C22.7526 26.242 22.6019 25.881 22.334 25.6149L17.0111 20.3248C16.5558 19.8725 16.2999 19.2588 16.2997 18.6189C16.2995 17.979 16.555 17.3652 17.0099 16.9125C17.4648 16.4599 18.082 16.2055 18.7256 16.2052C19.3692 16.205 19.9865 16.459 20.4418 16.9114L37.346 33.7188C37.4787 33.8506 37.6361 33.9551 37.8094 34.0263C37.9827 34.0976 38.1684 34.1342 38.3559 34.1341C38.5434 34.134 38.729 34.0971 38.9022 34.0257C39.0754 33.9542 39.2327 33.8496 39.3652 33.7177C39.4977 33.5858 39.6028 33.4292 39.6745 33.2569C39.7461 33.0846 39.7829 32.9 39.7828 32.7136C39.7827 32.5271 39.7457 32.3426 39.6738 32.1704C39.602 31.9982 39.4967 31.8417 39.364 31.71L32.7591 25.1451C32.3041 24.6925 32.0487 24.0787 32.0489 23.4388C32.0491 22.7988 32.305 22.1852 32.7602 21.7329C33.2155 21.2806 33.8328 21.0266 34.4764 21.0268C35.12 21.027 35.7372 21.2814 36.1921 21.7341L37.1656 22.7019L42.7995 28.3036C43.0674 28.5697 43.4307 28.7191 43.8094 28.7188C44.188 28.7186 44.5511 28.5688 44.8187 28.3024C45.0863 28.0361 45.2366 27.6749 45.2363 27.2984C45.2361 26.9218 45.0855 26.5608 44.8176 26.2948L39.186 20.6907L38.2031 19.7158C37.9776 19.4916 37.7988 19.2255 37.6768 18.9327C37.5548 18.6399 37.4921 18.326 37.4921 18.009C37.4921 17.6921 37.5548 17.3782 37.6768 17.0854C37.7988 16.7925 37.9776 16.5265 38.2031 16.3023C38.4285 16.0782 38.6961 15.9004 38.9906 15.7791C39.2851 15.6578 39.6008 15.5954 39.9196 15.5954C40.2384 15.5954 40.5541 15.6578 40.8486 15.7791C41.1431 15.9004 41.4107 16.0782 41.6361 16.3023L43.8038 18.4599L45.563 20.1997L48.2554 22.8766C48.523 23.1427 48.8859 23.2922 49.2644 23.2922C49.6429 23.2922 50.0058 23.1427 50.2734 22.8766C50.541 22.6105 50.6914 22.2496 50.6914 21.8733C50.6914 21.4971 50.541 21.1362 50.2734 20.8701L47.5787 18.1932L45.8313 16.4558C45.6059 16.2316 45.4271 15.9656 45.3051 15.6727C45.1831 15.3799 45.1203 15.066 45.1203 14.749C45.1203 14.1089 45.3761 13.495 45.8313 13.0423C46.2866 12.5897 46.904 12.3354 47.5479 12.3354C47.8667 12.3354 48.1823 12.3978 48.4768 12.5191C48.7714 12.6404 49.039 12.8182 49.2644 13.0423L59.8224 23.5423C60.5736 24.2885 61.2553 25.1007 61.8595 25.969C61.9661 26.1222 62.1021 26.2529 62.2596 26.3537C62.4171 26.4546 62.5931 26.5235 62.7775 26.5566C62.9619 26.5897 63.151 26.5863 63.3341 26.5467C63.5171 26.507 63.6905 26.4318 63.8443 26.3254C63.9158 26.2776 63.9826 26.223 64.0437 26.1626C64.28 25.9275 64.4256 25.6174 64.4551 25.2864C64.4846 24.9554 64.3961 24.6247 64.2052 24.352C63.5019 23.338 62.7072 22.3898 61.831 21.5193L51.2825 11.0358C50.2922 10.0512 48.9493 9.49768 47.5489 9.4968C46.1484 9.49591 44.8048 10.0477 43.8133 11.0311Z" fill="#5A1D57"/>
<path d="M64.9482 36.476C64.8525 39.2042 64.1134 41.8717 62.7906 44.2637C61.4677 46.6558 59.5981 48.7053 57.3324 50.247C55.0668 51.7888 52.4685 52.7797 49.747 53.1398C47.0255 53.5 44.257 53.2193 41.6646 52.3204L27.3839 47.3631C26.7189 47.1681 26.1591 46.7184 25.8277 46.1131C25.4962 45.5077 25.4201 44.7961 25.6163 44.135C25.8124 43.4739 26.2647 42.9173 26.8736 42.5877C27.4824 42.2581 28.198 42.1825 28.863 42.3775L37.5501 44.4738C37.8536 44.5498 38.1737 44.5245 38.4612 44.4016C38.7487 44.2787 38.9875 44.065 39.1406 43.7937C39.2938 43.5224 39.3529 43.2085 39.3087 42.9005C39.2646 42.5925 39.1196 42.3075 38.8963 42.0895L29.0007 32.2529C28.7331 31.9865 28.37 31.8367 27.9913 31.8365C27.6126 31.8363 27.2494 31.9857 26.9814 32.2517C26.7135 32.5178 26.5629 32.8788 26.5626 33.2553C26.5624 33.6319 26.7126 33.993 26.9803 34.2594L33.279 40.5221L29.5349 39.618C28.1716 39.2974 26.7365 39.5086 25.5251 40.2082C24.3137 40.9078 23.4181 42.0425 23.0226 43.3788C22.6271 44.715 22.7619 46.1512 23.3992 47.3917C24.0365 48.6321 25.1278 49.5825 26.4484 50.0471L40.7292 55.0044C43.7433 56.0479 46.9619 56.3728 50.1254 55.953C53.289 55.5332 56.3092 54.3804 58.9426 52.5875C61.5761 50.7946 63.7491 48.4117 65.2867 45.6309C66.8243 42.85 67.6834 39.749 67.7949 36.5775C67.8014 36.3915 67.7711 36.2061 67.7055 36.0317C67.64 35.8574 67.5406 35.6976 67.4129 35.5615C67.2853 35.4254 67.1319 35.3156 66.9616 35.2384C66.7913 35.1612 66.6073 35.1181 66.4202 35.1116C66.2332 35.1051 66.0466 35.1353 65.8713 35.2004C65.696 35.2656 65.5353 35.3645 65.3983 35.4914C65.2614 35.6183 65.151 35.7708 65.0734 35.9402C64.9957 36.1095 64.9524 36.2924 64.9459 36.4784L64.9482 36.476Z" fill="#5A1D57"/>
<path d="M64.6017 29.5099C64.3688 29.7417 64.224 30.0466 64.1919 30.3726C64.1597 30.6986 64.2422 31.0257 64.4253 31.298C64.6085 31.5703 64.8809 31.7711 65.1962 31.8662C65.5115 31.9613 65.8502 31.9447 66.1546 31.8194C66.459 31.694 66.7103 31.4676 66.8657 31.1788C67.0211 30.8899 67.071 30.5564 67.0068 30.2351C66.9427 29.9137 66.7685 29.6244 66.5139 29.4165C66.2594 29.2085 65.9402 29.0947 65.6107 29.0944C65.2325 29.0957 64.87 29.2449 64.6017 29.5099Z" fill="#5A1D57"/>
<path d="M25.7695 31.0466C26.0022 30.8149 26.147 30.5102 26.1792 30.1842C26.2114 29.8583 26.1291 29.5314 25.9461 29.259C25.7631 28.9867 25.4909 28.7858 25.1758 28.6906C24.8606 28.5954 24.522 28.6117 24.2176 28.7367C23.9132 28.8618 23.6618 29.0878 23.5061 29.3765C23.3505 29.6651 23.3002 29.9984 23.3639 30.3197C23.4277 30.6411 23.6014 30.9305 23.8556 31.1388C24.1098 31.347 24.4287 31.4613 24.7581 31.4621C25.1371 31.4617 25.5007 31.3124 25.7695 31.0466Z" fill="#5A1D57"/>
<path d="M95.2286 15.6177C95.148 15.9363 94.9655 16.2202 94.7086 16.4267C94.4517 16.6332 94.1343 16.7511 93.8041 16.7626H87.1113C86.9679 16.7703 86.8248 16.7436 86.6941 16.6846C86.5634 16.6256 86.4489 16.5361 86.3604 16.4238C86.2718 16.3114 86.2118 16.1795 86.1855 16.0392C86.1592 15.8988 86.1673 15.7543 86.2091 15.6177L86.6364 13.5475C86.8739 12.3412 86.2304 11.3498 85.1431 11.3498C84.0557 11.3498 83.0063 12.3412 82.7475 13.5475L80.879 22.3313C80.6013 23.5352 81.2518 24.496 82.3415 24.496C83.4313 24.496 84.4783 23.5352 84.768 22.3313L85.2119 20.2587C85.2832 19.9366 85.4589 19.6467 85.7119 19.4335C85.965 19.2202 86.2814 19.0955 86.6127 19.0784H93.3008C93.4478 19.0733 93.5939 19.1028 93.7273 19.1645C93.8607 19.2261 93.9776 19.3182 94.0685 19.4332C94.1594 19.5481 94.2217 19.6828 94.2505 19.8263C94.2792 19.9697 94.2735 20.1179 94.2338 20.2587L93.3934 24.1254C93.0515 25.825 90.8435 27.2177 88.5097 27.2177H75.0385C72.7071 27.2177 71.1188 25.825 71.463 24.1254L74.1055 11.7534C74.4806 10.0514 76.6577 8.65869 78.9892 8.65869H92.4912C94.825 8.65869 96.411 10.0514 96.0382 11.7534L95.2286 15.6177Z" fill="#2138BF"/>
<path d="M103.315 23.1953C103.274 23.3376 103.267 23.4876 103.294 23.6332C103.322 23.7787 103.384 23.9157 103.475 24.0332C103.565 24.1506 103.683 24.2451 103.817 24.3091C103.952 24.3731 104.099 24.4048 104.248 24.4015C104.481 24.397 104.709 24.3387 104.915 24.2314C105.121 24.1241 105.299 23.9706 105.435 23.7831L105.217 24.7722C103.849 26.1885 101.95 27.154 100.022 27.2154H98.3744C96.5059 27.2154 95.231 26.1035 95.5111 24.7415L98.7448 9.5864C98.808 9.32813 98.9545 9.09757 99.1621 8.93001C99.3696 8.76246 99.6267 8.66716 99.8939 8.65869H105.495C105.61 8.65298 105.725 8.67527 105.83 8.72363C105.935 8.772 106.026 8.84498 106.096 8.93629C106.166 9.0276 106.213 9.13449 106.232 9.24775C106.251 9.36101 106.243 9.47724 106.207 9.5864L103.315 23.1953Z" fill="#2138BF"/>
<path d="M114.918 24.7745C113.548 26.1909 111.651 27.1564 109.723 27.2177H108.073C106.207 27.2177 104.932 26.1035 105.212 24.7415L107.669 13.2973C107.722 13.0392 107.861 12.8066 108.064 12.6379C108.268 12.4692 108.523 12.3746 108.788 12.3696H114.388C114.504 12.3649 114.62 12.3876 114.725 12.4358C114.83 12.484 114.923 12.5562 114.995 12.6466C115.067 12.7371 115.116 12.8432 115.139 12.9562C115.162 13.0693 115.158 13.1862 115.127 13.2973L113.011 23.1953C112.97 23.3376 112.963 23.4876 112.99 23.6331C113.018 23.7787 113.08 23.9157 113.171 24.0332C113.262 24.1506 113.379 24.2451 113.513 24.3091C113.648 24.3731 113.795 24.4048 113.944 24.4015C114.177 24.3966 114.405 24.3382 114.611 24.2309C114.817 24.1236 114.995 23.9703 115.131 23.7831L114.918 24.7745ZM115.725 10.5472C115.656 10.8025 115.508 11.0297 115.302 11.1964C115.095 11.363 114.841 11.4605 114.576 11.4749H108.975C108.861 11.4774 108.747 11.4529 108.644 11.4036C108.541 11.3543 108.451 11.2814 108.382 11.191C108.312 11.1006 108.265 10.9951 108.245 10.8833C108.224 10.7714 108.23 10.6562 108.263 10.5472L108.448 9.61945C108.509 9.36505 108.651 9.13705 108.853 8.96945C109.055 8.80185 109.306 8.70361 109.569 8.68938H115.167C115.285 8.68088 115.402 8.70097 115.511 8.7479C115.619 8.79483 115.713 8.8672 115.787 8.95875C115.861 9.05031 115.911 9.1583 115.933 9.27341C115.955 9.38851 115.949 9.50728 115.915 9.61945L115.725 10.5472Z" fill="#2138BF"/>
<path d="M135.293 24.2788C135.229 24.0932 135.107 23.933 134.944 23.8217C134.782 23.7103 134.588 23.6538 134.391 23.6603C134.065 23.6537 133.747 23.7571 133.489 23.9535C133.23 24.1498 133.046 24.4276 132.966 24.7415C132.686 26.1035 130.913 27.2178 129.047 27.2178H117.779C115.913 27.2178 114.638 26.1035 114.918 24.7415L117.026 14.8765C117.313 13.5145 119.056 12.3979 120.922 12.3979H132.221C134.087 12.3979 135.362 13.5121 135.07 14.8742L134.761 16.2646C134.7 16.5179 134.558 16.7449 134.357 16.9123C134.156 17.0797 133.907 17.1787 133.645 17.1946H128.045C127.929 17.1984 127.814 17.1752 127.708 17.1269C127.603 17.0786 127.51 17.0065 127.438 16.9165C127.366 16.8264 127.315 16.7208 127.291 16.608C127.267 16.4953 127.27 16.3785 127.299 16.2669C127.484 15.3085 126.957 14.5673 126.112 14.5673C125.267 14.5673 124.4 15.3392 124.184 16.2976L122.691 23.2873C122.472 24.2788 123.002 25.0507 123.878 25.0507C124.754 25.0507 125.59 24.2788 125.808 23.318C126.088 21.9583 127.798 21.5877 129.664 21.5877H131.271C133.199 21.5877 134.723 21.8639 135.5 23.2873L135.293 24.2788Z" fill="#2138BF"/>
<path d="M155.386 24.7745C154.018 26.1909 152.121 27.1564 150.191 27.2177H148.543C146.677 27.2177 145.402 26.1035 145.68 24.7415L146.302 21.8663C146.49 20.8772 145.991 20.1029 145.115 20.1029C144.239 20.1029 143.375 20.8772 143.187 21.8663L142.223 26.29C142.171 26.5487 142.032 26.7818 141.828 26.9506C141.624 27.1194 141.368 27.2137 141.103 27.2177H135.509C135.392 27.2239 135.276 27.2023 135.169 27.1549C135.063 27.1074 134.969 27.0353 134.896 26.9447C134.823 26.854 134.772 26.7473 134.749 26.6335C134.726 26.5197 134.73 26.4019 134.761 26.29L138.339 9.61945C138.4 9.36487 138.542 9.13666 138.744 8.969C138.946 8.80134 139.197 8.70324 139.46 8.68938H145.058C145.176 8.68088 145.293 8.70097 145.402 8.7479C145.51 8.79483 145.604 8.8672 145.678 8.95875C145.752 9.05031 145.802 9.1583 145.824 9.27341C145.846 9.38851 145.84 9.50728 145.806 9.61945L143.783 19.1445C143.919 19.0544 144.066 18.9815 144.22 18.9273L148.759 12.8983C148.871 12.7444 149.015 12.6173 149.182 12.5262C149.35 12.4351 149.535 12.3824 149.726 12.3719H154.237C154.352 12.3687 154.467 12.3922 154.572 12.4407C154.677 12.4891 154.77 12.5611 154.842 12.6511C154.914 12.741 154.964 12.8464 154.989 12.9589C155.013 13.0715 155.011 13.1881 154.982 13.2996L154.745 14.4445C154.681 14.7039 154.534 14.9353 154.325 15.103C154.116 15.2707 153.857 15.3653 153.588 15.3722H150.751C149.384 15.3722 148.201 16.5761 147.487 17.4968L146.677 18.5473H151.093C152.959 18.5473 154.237 19.6615 153.956 21.0212L153.482 23.1858C153.44 23.3281 153.433 23.4781 153.461 23.6237C153.489 23.7693 153.55 23.9063 153.641 24.0237C153.732 24.1412 153.849 24.2357 153.984 24.2997C154.118 24.3637 154.266 24.3953 154.415 24.3921C154.647 24.3877 154.876 24.3296 155.082 24.2222C155.288 24.1149 155.466 23.9613 155.602 23.7736L155.386 24.7745Z" fill="#2138BF"/>
<path d="M96.7196 50.5169C95.3213 51.9333 93.4243 52.9908 91.4964 52.9908H87.2965C85.428 52.9908 85.117 52.0017 85.1597 50.4555C85.1597 48.1657 84.5045 44.8562 82.9494 44.8562L83.4479 42.5357H84.7229C85.3449 42.5357 86.3421 42.4743 86.5273 41.6387L87.2751 38.0199C87.4295 37.4014 86.5273 37.1228 86.0311 37.1228H83.4693L80.3283 51.8459C80.2502 52.1552 80.076 52.4321 79.8305 52.6372C79.5849 52.8424 79.2806 52.9653 78.9607 52.9884H71.9308C71.7911 52.9885 71.6533 52.9564 71.5281 52.8946C71.403 52.8329 71.2939 52.7432 71.2095 52.6325C71.1251 52.5218 71.0677 52.3932 71.0416 52.2567C71.0156 52.1202 71.0217 51.9796 71.0594 51.8459L74.5424 35.5766C74.6208 35.2669 74.7954 34.9896 75.0413 34.7841C75.2872 34.5786 75.5919 34.4553 75.9123 34.4317H92.9898C95.2595 34.4317 96.817 35.7631 96.3801 37.8027L95.5729 41.5442C95.1361 43.5862 93.0207 44.9482 90.7509 44.9175H90.3473C91.5605 45.1324 92.2134 45.5053 92.8046 46.1238C93.3008 46.6195 93.7068 47.4528 94.0154 48.2885C94.3241 49.1241 94.5449 50.177 95.7272 50.177C95.9597 50.172 96.1879 50.1136 96.3938 50.0063C96.5998 49.899 96.778 49.7457 96.9143 49.5585L96.7196 50.5169Z" fill="#2138BF"/>
<path d="M116.971 50.0849C116.905 49.8945 116.778 49.7309 116.61 49.6188C116.441 49.5068 116.241 49.4524 116.038 49.4641C115.715 49.4574 115.4 49.5614 115.145 49.7587C114.89 49.956 114.711 50.2346 114.638 50.5476C114.327 51.9073 112.584 52.9908 110.718 52.9908H99.4571C97.591 52.9908 96.3161 51.8766 96.5962 50.5145L98.7116 40.6189C98.9918 39.2568 100.765 38.1426 102.631 38.1426H113.892C115.758 38.1426 117.033 39.2568 116.753 40.6189L116.133 43.5578C115.822 44.9199 114.08 46.0341 112.214 46.0341H105.027L104.374 49.0651C104.156 50.0542 104.685 50.8285 105.561 50.8285C106.437 50.8285 107.271 50.0849 107.489 49.1265C107.769 47.7644 109.481 47.3938 111.347 47.3938H112.964C114.892 47.3938 116.416 47.6724 117.164 49.0958L116.971 50.0849ZM107.793 40.3096C106.922 40.3096 106.083 41.0839 105.865 42.073L105.431 44.1763H108.541L108.975 42.073C109.191 41.0816 108.667 40.3096 107.793 40.3096Z" fill="#2138BF"/>
<path d="M137.095 50.5476C135.727 51.9639 133.83 52.9908 131.9 52.9908H125.929C125.199 53.0174 124.48 52.8115 123.876 52.403L122.881 57.0723C122.817 57.3307 122.67 57.5614 122.462 57.7289C122.254 57.8964 121.997 57.9916 121.729 58H116.131C116.016 58.0057 115.9 57.9834 115.796 57.9351C115.691 57.8867 115.6 57.8137 115.529 57.7224C115.459 57.6311 115.413 57.5242 115.393 57.4109C115.374 57.2977 115.383 57.1814 115.419 57.0723L119.272 39.0727C119.324 38.8146 119.464 38.582 119.667 38.4133C119.87 38.2446 120.125 38.15 120.39 38.145H125.991L126.551 38.8532C127.321 38.3929 128.202 38.1482 129.101 38.145H134.12C136.019 38.145 137.261 39.2592 136.969 40.6212L135.196 48.9707C135.154 49.1132 135.147 49.2634 135.175 49.4092C135.203 49.5549 135.265 49.6921 135.356 49.8096C135.447 49.927 135.565 50.0215 135.699 50.0854C135.834 50.1492 135.982 50.1806 136.131 50.177C136.364 50.1724 136.592 50.1142 136.798 50.0068C137.004 49.8995 137.182 49.746 137.318 49.5585L137.095 50.5476ZM128.014 40.3096C127.142 40.3096 126.302 41.0839 126.084 42.073L124.59 49.0628C124.374 50.0519 124.901 50.8261 125.777 50.8261C126.653 50.8261 127.489 50.0519 127.705 49.0628L129.198 42.073C129.412 41.0816 128.883 40.3096 128.014 40.3096Z" fill="#2138BF"/>
<path d="M157.387 50.5476C156.017 51.9639 154.12 52.9601 152.192 52.9908H150.53C149.381 52.9908 148.479 52.5588 147.981 51.938C147.793 52.0631 147.608 52.2165 147.451 52.311C146.695 52.747 145.839 52.9842 144.965 53.0002H139.956C138.09 53.0002 136.815 51.8884 137.095 50.5263L139.552 39.0727C139.604 38.8144 139.743 38.5816 139.947 38.4128C140.15 38.2441 140.406 38.1496 140.671 38.145H146.271C146.388 38.1392 146.504 38.1611 146.61 38.2087C146.717 38.2564 146.81 38.3285 146.883 38.4191C146.956 38.5097 147.006 38.6162 147.029 38.7298C147.052 38.8435 147.048 38.961 147.017 39.0727L144.88 49.0628C144.664 50.0519 145.191 50.8261 146.067 50.8261C146.943 50.8261 147.779 50.0519 147.995 49.0628L150.132 39.0727C150.184 38.8142 150.324 38.5813 150.528 38.4126C150.731 38.2439 150.987 38.1495 151.252 38.145H156.853C156.969 38.1392 157.086 38.1611 157.192 38.2087C157.298 38.2564 157.392 38.3285 157.465 38.4191C157.537 38.5097 157.587 38.6162 157.611 38.7298C157.634 38.8435 157.63 38.961 157.598 39.0727L155.488 48.9707C155.447 49.1129 155.44 49.2626 155.468 49.4079C155.496 49.5531 155.558 49.6898 155.649 49.8069C155.739 49.9241 155.857 50.0184 155.991 50.0822C156.125 50.1461 156.272 50.1777 156.421 50.1746C156.653 50.1701 156.881 50.1122 157.087 50.0053C157.293 49.8984 157.471 49.7454 157.608 49.5585L157.387 50.5476Z" fill="#2138BF"/>
<path d="M177.753 50.0849C177.686 49.8943 177.559 49.7306 177.39 49.6186C177.221 49.5066 177.02 49.4523 176.818 49.4641C176.495 49.4571 176.179 49.561 175.924 49.7584C175.67 49.9558 175.491 50.2345 175.419 50.5476C175.108 51.9073 173.365 52.9908 171.499 52.9908H160.236C158.37 52.9908 157.095 51.8766 157.387 50.5145L159.503 40.6189C159.783 39.2568 161.554 38.1426 163.422 38.1426H174.683C176.549 38.1426 177.824 39.2568 177.544 40.6189L176.913 43.5578C176.604 44.9199 174.861 46.0341 172.995 46.0341H165.808L165.156 49.0651C164.937 50.0542 165.467 50.8285 166.343 50.8285C167.219 50.8285 168.052 50.0849 168.271 49.1265C168.551 47.7644 170.26 47.3938 172.129 47.3938H173.745C175.673 47.3938 177.197 47.6724 177.945 49.0958L177.753 50.0849ZM168.577 40.3096C167.705 40.3096 166.865 41.0839 166.647 42.073L166.212 44.1763H169.322L169.757 42.073C169.97 41.0816 169.446 40.3096 168.577 40.3096Z" fill="#2138BF"/>
<path d="M198.997 42.073C197.63 43.5248 196.01 43.402 195.077 43.402H192.525C190.659 43.402 190.151 43.1258 189.913 42.0423C189.728 41.1146 189.384 40.4654 188.451 40.4654C188 40.4713 187.566 40.6313 187.22 40.9184C186.874 41.2056 186.638 41.6025 186.552 42.0423C186.336 43.0621 186.366 44.0512 187.546 44.3298L192.532 45.4746C194.906 46.0011 195.856 46.6195 195.362 48.907L195.02 50.5145C194.674 52.1858 192.525 53.0002 191.101 53.0002H180.457C179.033 53.0002 177.254 52.1953 177.608 50.524L178.012 48.6685C178.064 48.4099 178.203 48.1767 178.407 48.0079C178.611 47.8391 178.867 47.7449 179.132 47.7408H184.42C185.26 47.7408 185.196 48.449 185.072 49.0722C184.887 49.9692 185.353 50.6798 186.286 50.6798C186.739 50.6673 187.175 50.5011 187.52 50.2087C187.866 49.9163 188.1 49.5153 188.185 49.0722C188.403 48.0194 188.373 47.0917 187.19 46.8131L182.204 45.6706C179.83 45.1442 178.907 44.4336 179.372 42.2383L179.714 40.6283C180.087 38.957 182.204 38.1544 183.634 38.1544H194.211C195.635 38.1544 197.414 38.957 197.06 40.6283C196.936 41.2775 197.34 41.7118 198.026 41.7118C198.254 41.7001 198.477 41.6419 198.681 41.5408C198.885 41.4397 199.066 41.2978 199.213 41.1241L198.997 42.073Z" fill="#2138BF"/>
<path d="M217.722 45.9184C217.656 45.7283 217.529 45.5649 217.36 45.4533C217.192 45.3416 216.991 45.2878 216.789 45.3C216.452 45.3197 216.131 45.4481 215.874 45.6658C215.617 45.8835 215.438 46.1785 215.365 46.5062L214.494 50.5193C214.209 51.8766 212.435 53.0002 210.569 53.0002H199.93C198.064 53.0002 196.789 51.886 197.067 50.524L200.123 36.2258C200.186 35.9673 200.333 35.7367 200.541 35.5692C200.749 35.4017 201.007 35.3064 201.274 35.2981H206.875C206.99 35.2924 207.105 35.3147 207.21 35.363C207.315 35.4114 207.406 35.4844 207.476 35.5757C207.546 35.667 207.593 35.7739 207.612 35.8872C207.632 36.0004 207.623 36.1166 207.587 36.2258L207.183 38.1733H214.244C214.363 38.1616 214.482 38.1796 214.592 38.2256C214.701 38.2716 214.797 38.3442 214.872 38.4367C214.946 38.5291 214.995 38.6386 215.016 38.7551C215.037 38.8715 215.028 38.9913 214.99 39.1034L214.835 39.8446C214.767 40.1003 214.618 40.3278 214.411 40.4945C214.204 40.6611 213.95 40.7584 213.684 40.7723H206.618L204.845 49.0628C204.626 50.0519 205.156 50.8261 206.032 50.8261C206.908 50.8261 207.744 50.0825 207.96 49.1241L208.831 44.9482C209.142 43.5885 210.73 42.9984 212.597 42.9984H213.622C215.522 43.0314 217.167 43.4941 217.946 44.9175L217.722 45.9184Z" fill="#2138BF"/>
<path d="M238.822 42.1958C238.059 42.9679 237.164 43.5972 236.177 44.0536L234.779 50.5169C234.498 51.879 232.725 52.9932 230.859 52.9932H219.591C217.725 52.9932 216.45 51.879 216.742 50.5169L218.857 40.6189C219.135 39.2592 220.909 38.145 222.777 38.145H234.038C235.904 38.145 237.179 39.2592 236.899 40.6189C236.775 41.2704 237.179 41.8252 237.832 41.8252C238.064 41.8207 238.292 41.7627 238.498 41.6558C238.704 41.5489 238.882 41.396 239.019 41.209L238.822 42.1958ZM227.934 40.3073C227.065 40.3073 226.224 41.0816 226.006 42.0707L224.513 49.0604C224.294 50.0495 224.824 50.8238 225.7 50.8238C226.576 50.8238 227.411 50.0495 227.627 49.0604L229.121 42.0707C229.325 41.0816 228.796 40.3096 227.924 40.3096L227.934 40.3073Z" fill="#2138BF"/>
<path d="M258.378 42.073C257.01 43.5248 255.391 43.402 254.458 43.402H251.908C250.042 43.402 249.534 43.1258 249.297 42.0423C249.112 41.1146 248.77 40.4654 247.837 40.4654C247.386 40.4708 246.951 40.6307 246.605 40.9179C246.259 41.2052 246.023 41.6023 245.937 42.0423C245.719 43.0621 245.75 44.0512 246.932 44.3298L251.918 45.4746C254.292 46.0011 255.242 46.6195 254.75 48.907L254.408 50.5145C254.066 52.1858 251.918 52.9908 250.489 52.9908H239.85C238.425 52.9908 236.645 52.1858 236.987 50.5145L237.393 48.6591C237.444 48.4006 237.583 48.1675 237.787 47.9987C237.99 47.8299 238.246 47.7355 238.511 47.7314H243.8C244.639 47.7314 244.577 48.4396 244.453 49.0628C244.266 49.9598 244.734 50.6703 245.667 50.6703C246.12 50.6574 246.555 50.491 246.901 50.1987C247.246 49.9064 247.481 49.5057 247.566 49.0628C247.784 48.0099 247.753 47.0822 246.571 46.8037L241.585 45.6611C239.211 45.1347 238.29 44.4242 238.755 42.2288L239.097 40.6189C239.47 38.9476 241.585 38.145 243.017 38.145H253.594C255.018 38.145 256.799 38.9476 256.443 40.6189C256.32 41.268 256.723 41.7024 257.407 41.7024C257.635 41.6899 257.857 41.6313 258.061 41.5302C258.266 41.4291 258.447 41.2877 258.594 41.1146L258.378 42.073Z" fill="#2138BF"/>
<path d="M60.8362 22.5343L50.2758 12.0367C49.5517 11.3167 48.5696 10.9122 47.5455 10.9122C46.5215 10.9122 45.5393 11.3167 44.8152 12.0367C44.0911 12.7567 43.6843 13.7332 43.6843 14.7514C43.6843 15.7696 44.0911 16.7461 44.8152 17.4661L42.6476 15.3085C42.289 14.952 41.8634 14.6692 41.3949 14.4763C40.9264 14.2833 40.4243 14.184 39.9173 14.184C38.8932 14.184 37.9111 14.5885 37.1869 15.3085C36.8284 15.665 36.544 16.0882 36.3499 16.554C36.1559 17.0198 36.056 17.519 36.056 18.0232C36.056 19.0414 36.4628 20.0179 37.1869 20.7379C36.5787 20.138 35.7869 19.7566 34.9365 19.6539C34.0861 19.5512 33.2255 19.733 32.4905 20.1706C31.7556 20.6083 31.1881 21.2768 30.8778 22.0707C30.5674 22.8647 30.5318 23.7387 30.7766 24.555L39.3949 33.124L30.7078 31.0278C30.0233 30.8618 29.307 30.8769 28.6301 31.0715C27.9533 31.2661 27.3395 31.6336 26.8497 32.1372L36.2017 41.4333L42.714 43.6735C46.0794 44.8399 49.7073 45.0393 53.1815 44.2489C56.6557 43.4585 59.8354 41.7103 62.3557 39.2049C63.9878 37.5847 65.3082 35.6814 66.2517 33.589C65.745 29.4044 63.8375 25.5108 60.8362 22.5343Z" fill="#FF4100"/>
<path d="M12.7113 12.6339C12.8441 12.5024 12.9495 12.346 13.0214 12.1738C13.0933 12.0017 13.1303 11.8171 13.1303 11.6307C13.1303 11.4443 13.0933 11.2597 13.0214 11.0875C12.9495 10.9154 12.8441 10.759 12.7113 10.6274L6.48385 4.43557C6.21592 4.16949 5.85266 4.02013 5.47398 4.02036C5.0953 4.02058 4.73221 4.17036 4.4646 4.43675C4.19699 4.70315 4.04677 5.06433 4.047 5.44084C4.04722 5.81736 4.19786 6.17836 4.46579 6.44444L10.6909 12.6339C10.8233 12.7663 10.9807 12.8714 11.1541 12.9431C11.3274 13.0148 11.5134 13.0517 11.7011 13.0517C11.8889 13.0517 12.0748 13.0148 12.2482 12.9431C12.4216 12.8714 12.579 12.7663 12.7113 12.6339Z" fill="#2138BF"/>
<path d="M24.7437 12.6339C24.8761 12.766 25.0333 12.8708 25.2065 12.9422C25.3796 13.0137 25.5653 13.0505 25.7527 13.0505C25.9402 13.0505 26.1259 13.0137 26.299 12.9422C26.4722 12.8708 26.6294 12.766 26.7618 12.6339L32.9798 6.44681C33.2477 6.18041 33.3982 5.81911 33.3982 5.44237C33.3982 5.06563 33.2477 4.70433 32.9798 4.43793C32.7118 4.17154 32.3485 4.02188 31.9696 4.02188C31.5906 4.02188 31.2273 4.17154 30.9593 4.43793L24.7437 10.6298C24.6113 10.7613 24.5062 10.9175 24.4345 11.0895C24.3628 11.2614 24.3259 11.4457 24.3259 11.6319C24.3259 11.818 24.3628 12.0023 24.4345 12.1742C24.5062 12.3462 24.6113 12.5024 24.7437 12.6339Z" fill="#2138BF"/>
<path d="M12.709 24.5998C12.5766 24.4674 12.4192 24.3624 12.2458 24.2907C12.0724 24.219 11.8865 24.1821 11.6988 24.1821C11.511 24.1821 11.3251 24.219 11.1517 24.2907C10.9783 24.3624 10.8209 24.4674 10.6885 24.5998L4.46105 30.7893C4.19312 31.0557 4.0426 31.417 4.0426 31.7938C4.0426 32.1705 4.19312 32.5318 4.46105 32.7982C4.72897 33.0646 5.09236 33.2143 5.47126 33.2143C5.85017 33.2143 6.21355 33.0646 6.48148 32.7982L12.709 26.6063C12.8418 26.4748 12.9471 26.3184 13.019 26.1462C13.0909 25.9741 13.128 25.7895 13.128 25.6031C13.128 25.4167 13.0909 25.2321 13.019 25.0599C12.9471 24.8878 12.8418 24.7314 12.709 24.5998Z" fill="#2138BF"/>
<path d="M7.30776 20.0368C7.68556 20.0368 8.04789 19.8876 8.31504 19.622C8.58219 19.3563 8.73227 18.9961 8.73227 18.6204C8.73227 18.2448 8.58219 17.8845 8.31504 17.6189C8.04789 17.3533 7.68556 17.2041 7.30776 17.2041H1.42927C1.05147 17.2041 0.689138 17.3533 0.421991 17.6189C0.154843 17.8845 0.00476074 18.2448 0.00476074 18.6204C0.00476074 18.9961 0.154843 19.3563 0.421991 19.622C0.689138 19.8876 1.05147 20.0368 1.42927 20.0368H7.30776Z" fill="#2138BF"/>
<path d="M19.7366 8.26919C19.8708 8.13846 19.9773 7.98234 20.0499 7.81004C20.1225 7.63774 20.1597 7.45273 20.1592 7.26593V1.41872C20.1592 1.04308 20.0091 0.68282 19.742 0.4172C19.4748 0.151581 19.1125 0.00235748 18.7347 0.00235748C18.3569 0.00235748 17.9946 0.151581 17.7274 0.4172C17.4603 0.68282 17.3102 1.04308 17.3102 1.41872V7.26593C17.3102 7.64157 17.4603 8.00183 17.7274 8.26745C17.9946 8.53307 18.3569 8.68229 18.7347 8.68229C18.9209 8.68272 19.1053 8.64643 19.2773 8.57552C19.4492 8.50461 19.6054 8.40049 19.7366 8.26919Z" fill="#2138BF"/>
<path d="M43.8133 11.0311C43.1564 11.6842 42.6854 12.4987 42.4481 13.3917C41.63 12.9478 40.7084 12.7271 39.7767 12.752C38.8451 12.7769 37.9367 13.0465 37.1438 13.5335C36.3509 14.0205 35.7017 14.7074 35.2623 15.5246C34.8229 16.3418 34.6088 17.26 34.6418 18.1861C33.493 18.1485 32.3633 18.4852 31.4247 19.1448C30.4861 19.8045 29.79 20.751 29.4423 21.8403L22.4622 14.9001C21.9716 14.4123 21.3892 14.0254 20.7482 13.7614C20.1072 13.4974 19.4202 13.3616 18.7264 13.3616C18.0326 13.3616 17.3456 13.4974 16.7046 13.7614C16.0637 14.0254 15.4812 14.4123 14.9906 14.9001C13.9999 15.8852 13.4432 17.2214 13.4432 18.6145C13.4432 20.0077 13.9999 21.3438 14.9906 22.3289L20.3159 27.6238C20.5839 27.8899 20.9471 28.0392 21.3258 28.039C21.7045 28.0388 22.0676 27.889 22.3352 27.6226C22.6028 27.3562 22.753 26.995 22.7528 26.6185C22.7526 26.242 22.6019 25.881 22.334 25.6149L17.0111 20.3248C16.5558 19.8725 16.2999 19.2588 16.2997 18.6189C16.2995 17.979 16.555 17.3652 17.0099 16.9125C17.4648 16.4599 18.082 16.2055 18.7256 16.2052C19.3692 16.205 19.9865 16.459 20.4418 16.9114L37.346 33.7188C37.4787 33.8506 37.6361 33.9551 37.8094 34.0263C37.9827 34.0976 38.1684 34.1342 38.3559 34.1341C38.5434 34.134 38.729 34.0971 38.9022 34.0257C39.0754 33.9542 39.2327 33.8496 39.3652 33.7177C39.4977 33.5858 39.6028 33.4292 39.6745 33.2569C39.7461 33.0846 39.7829 32.9 39.7828 32.7136C39.7827 32.5271 39.7457 32.3426 39.6738 32.1704C39.602 31.9982 39.4967 31.8417 39.364 31.71L32.7591 25.1451C32.3041 24.6925 32.0487 24.0787 32.0489 23.4388C32.0491 22.7988 32.305 22.1852 32.7602 21.7329C33.2155 21.2806 33.8328 21.0266 34.4764 21.0268C35.12 21.027 35.7372 21.2814 36.1921 21.7341L37.1656 22.7019L42.7995 28.3036C43.0674 28.5697 43.4307 28.7191 43.8094 28.7188C44.188 28.7186 44.5511 28.5688 44.8187 28.3024C45.0863 28.0361 45.2366 27.6749 45.2363 27.2984C45.2361 26.9218 45.0855 26.5608 44.8176 26.2948L39.186 20.6907L38.2031 19.7158C37.9776 19.4916 37.7988 19.2255 37.6768 18.9327C37.5548 18.6399 37.4921 18.326 37.4921 18.009C37.4921 17.6921 37.5548 17.3782 37.6768 17.0854C37.7988 16.7925 37.9776 16.5265 38.2031 16.3023C38.4285 16.0782 38.6961 15.9004 38.9906 15.7791C39.2851 15.6578 39.6008 15.5954 39.9196 15.5954C40.2384 15.5954 40.5541 15.6578 40.8486 15.7791C41.1431 15.9004 41.4107 16.0782 41.6361 16.3023L43.8038 18.4599L45.563 20.1997L48.2554 22.8766C48.523 23.1427 48.8859 23.2922 49.2644 23.2922C49.6429 23.2922 50.0058 23.1427 50.2734 22.8766C50.541 22.6105 50.6914 22.2496 50.6914 21.8733C50.6914 21.4971 50.541 21.1362 50.2734 20.8701L47.5787 18.1932L45.8313 16.4558C45.6059 16.2316 45.4271 15.9656 45.3051 15.6727C45.1831 15.3799 45.1203 15.066 45.1203 14.749C45.1203 14.1089 45.3761 13.495 45.8313 13.0423C46.2866 12.5897 46.904 12.3354 47.5479 12.3354C47.8667 12.3354 48.1823 12.3978 48.4768 12.5191C48.7714 12.6404 49.039 12.8182 49.2644 13.0423L59.8224 23.5423C60.5736 24.2885 61.2553 25.1007 61.8595 25.969C61.9661 26.1222 62.1021 26.2529 62.2596 26.3537C62.4171 26.4546 62.5931 26.5235 62.7775 26.5566C62.9619 26.5897 63.151 26.5863 63.3341 26.5467C63.5171 26.507 63.6905 26.4318 63.8443 26.3254C63.9158 26.2776 63.9826 26.223 64.0437 26.1626C64.28 25.9275 64.4256 25.6174 64.4551 25.2864C64.4846 24.9554 64.3961 24.6247 64.2052 24.352C63.5019 23.338 62.7072 22.3898 61.831 21.5193L51.2825 11.0358C50.2922 10.0512 48.9493 9.49768 47.5489 9.4968C46.1484 9.49591 44.8048 10.0477 43.8133 11.0311Z" fill="#2138BF"/>
<path d="M64.9482 36.476C64.8525 39.2042 64.1134 41.8717 62.7906 44.2637C61.4677 46.6558 59.5981 48.7053 57.3324 50.247C55.0668 51.7888 52.4685 52.7797 49.747 53.1398C47.0255 53.5 44.257 53.2193 41.6646 52.3204L27.3839 47.3631C26.7189 47.1681 26.1591 46.7184 25.8277 46.1131C25.4962 45.5077 25.4201 44.7961 25.6163 44.135C25.8124 43.4739 26.2647 42.9173 26.8736 42.5877C27.4824 42.2581 28.198 42.1825 28.863 42.3775L37.5501 44.4738C37.8536 44.5498 38.1737 44.5245 38.4612 44.4016C38.7487 44.2787 38.9875 44.065 39.1406 43.7937C39.2938 43.5224 39.3529 43.2085 39.3087 42.9005C39.2646 42.5925 39.1196 42.3075 38.8963 42.0895L29.0007 32.2529C28.7331 31.9865 28.37 31.8367 27.9913 31.8365C27.6126 31.8363 27.2494 31.9857 26.9814 32.2517C26.7135 32.5178 26.5629 32.8788 26.5626 33.2553C26.5624 33.6319 26.7126 33.993 26.9803 34.2594L33.279 40.5221L29.5349 39.618C28.1716 39.2974 26.7365 39.5086 25.5251 40.2082C24.3137 40.9078 23.4181 42.0425 23.0226 43.3788C22.6271 44.715 22.7619 46.1512 23.3992 47.3917C24.0365 48.6321 25.1278 49.5825 26.4484 50.0471L40.7292 55.0044C43.7433 56.0479 46.9619 56.3728 50.1254 55.953C53.289 55.5332 56.3092 54.3804 58.9426 52.5875C61.5761 50.7946 63.7491 48.4117 65.2867 45.6309C66.8243 42.85 67.6834 39.749 67.7949 36.5775C67.8014 36.3915 67.7711 36.2061 67.7055 36.0317C67.64 35.8574 67.5406 35.6976 67.4129 35.5615C67.2853 35.4254 67.1319 35.3156 66.9616 35.2384C66.7913 35.1612 66.6073 35.1181 66.4202 35.1116C66.2332 35.1051 66.0466 35.1353 65.8713 35.2004C65.696 35.2656 65.5353 35.3645 65.3983 35.4914C65.2614 35.6183 65.151 35.7708 65.0734 35.9402C64.9957 36.1095 64.9524 36.2924 64.9459 36.4784L64.9482 36.476Z" fill="#2138BF"/>
<path d="M64.6017 29.5099C64.3688 29.7417 64.224 30.0466 64.1919 30.3726C64.1597 30.6986 64.2422 31.0257 64.4253 31.298C64.6085 31.5703 64.8809 31.7711 65.1962 31.8662C65.5115 31.9613 65.8502 31.9447 66.1546 31.8194C66.459 31.694 66.7103 31.4676 66.8657 31.1788C67.0211 30.8899 67.071 30.5564 67.0068 30.2351C66.9427 29.9137 66.7685 29.6244 66.5139 29.4165C66.2594 29.2085 65.9402 29.0947 65.6107 29.0944C65.2325 29.0957 64.87 29.2449 64.6017 29.5099Z" fill="#2138BF"/>
<path d="M25.7695 31.0466C26.0022 30.8149 26.147 30.5102 26.1792 30.1842C26.2114 29.8583 26.1291 29.5314 25.9461 29.259C25.7631 28.9867 25.4909 28.7858 25.1758 28.6906C24.8606 28.5954 24.522 28.6117 24.2176 28.7367C23.9132 28.8618 23.6618 29.0878 23.5061 29.3765C23.3505 29.6651 23.3002 29.9984 23.3639 30.3197C23.4277 30.6411 23.6014 30.9305 23.8556 31.1388C24.1098 31.347 24.4287 31.4613 24.7581 31.4621C25.1371 31.4617 25.5007 31.3124 25.7695 31.0466Z" fill="#2138BF"/>
<path d="M255.401 22.8483C256.355 22.8483 257.271 22.4712 257.946 21.8001C258.621 21.129 259 20.2187 259 19.2696C259 18.3205 258.621 17.4102 257.946 16.7391C257.271 16.068 256.355 15.6909 255.401 15.6909H163.919C163.446 15.6909 162.978 15.7835 162.541 15.9633C162.105 16.1432 161.708 16.4068 161.374 16.7391C161.039 17.0714 160.774 17.4659 160.593 17.9001C160.412 18.3343 160.319 18.7996 160.319 19.2696C160.319 19.7396 160.412 20.2049 160.593 20.6391C160.774 21.0733 161.039 21.4678 161.374 21.8001C161.708 22.1324 162.105 22.396 162.541 22.5759C162.978 22.7557 163.446 22.8483 163.919 22.8483H255.401Z" fill="#FF4100"/>
</g>
<defs>
<clipPath id="clip0_6_3">
<rect width="259" height="58" fill="white"/>
</clipPath>
</defs>
</svg>
